<svg xmlns="http://www.w3.org/2000/svg" height="256" width="1024" version="1.1" viewBox="0 0 1024 256">
	<g transform="translate(0 -796.36)">
		<path d="m968.36 895.88c-4.48-7.84-14.56-12.8-25.12-12.8-23.04-0.16-41.12 14.08-41.12 41.28 0 27.68 17.28 42.08 40.64 41.92 8.8-0.16 21.12-4.64 25.6-13.92l0.96 11.52h18.4v-78.88h-18.72l-0.64 10.88zm-23.36 4.64c30.72 0 30.72 47.84 0 47.84-12.96 0-23.36-8.96-23.36-24s10.4-23.84 23.36-23.84zm-131.37-48.64v112h19.52v-40.32c0-11.84 8-21.6 19.52-21.6 10.4 0 17.92 6.08 17.92 20.48v41.44h19.52v-41.6c0-23.2-9.92-38.4-32.32-38.4-8.96 0-17.6 2.72-24.64 11.84v-43.84h-19.52zm-60.51 49.44c12.32 0 22.88 9.28 22.88 23.04 0 14.24-10.56 23.2-22.88 23.2-12.48 0-22.4-9.44-22.4-23.2 0-14.24 9.92-23.04 22.4-23.04zm24.16-49.28v43.68c-4.64-8.16-17.6-12.64-25.92-12.64-23.04 0-40.16 14.08-40.16 41.28 0 25.92 17.44 41.28 40.64 41.28 9.6 0 19.36-3.2 25.44-12.64l1.28 10.88h18.24v-111.84h-19.52zm-131.78 32.96v78.88h19.52v-41.6c0-14.56 9.44-20 19.68-20 6.4 0 10.08 1.76 14.08 5.12l8.8-16.96c-4.32-4.32-12.16-7.52-20.32-7.52-8 0-16.16 1.44-22.24 11.2l-1.44-9.12h-18.08zm-35.892 10.88c-4.48-7.84-14.56-12.8-25.12-12.8-23.04-0.16-41.12 14.08-41.12 41.28 0 27.68 17.28 42.08 40.64 41.92 8.8-0.16 21.12-4.64 25.6-13.92l0.96 11.52h18.4v-78.88h-18.72l-0.64 10.88zm-23.36 4.64c30.72 0 30.72 47.84 0 47.84-12.96 0-23.36-8.96-23.36-24s10.4-23.84 23.36-23.84zm-94.88 46.4c-13.28 0-22.4-10.08-22.4-22.4s8.32-22.4 22.4-22.4 22.4 10.08 22.4 22.4-9.12 22.4-22.4 22.4zm-24.16 49.92v-42.24c5.6 8.64 17.92 11.2 26.24 11.2 25.28 0 39.84-18.24 39.84-41.28 0-23.2-16.16-41.28-40.48-41.28-8.96 0-19.52 3.84-25.6 12.64l-1.28-10.88h-18.24v111.84h19.52zm-35.558-103.68c-9.12-8-18.4-10.4-30.72-10.4-14.4 0-33.28 6.4-33.28 24.64 0 17.92 17.76 23.36 32.64 24.48 11.2 0.64 15.68 2.88 15.68 8.32 0 5.76-6.88 9.6-14.24 9.44-8.8-0.16-21.6-4.8-27.2-11.04l-9.6 13.92c11.52 12 24 14.08 36.48 14.08 22.56 0 33.92-12 33.92-25.92 0-20.96-18.88-24.32-33.76-25.28-10.08-0.64-14.72-3.52-14.72-8.64 0-4.96 5.12-7.84 14.4-7.84 7.52 0 13.92 1.76 19.52 7.04l10.88-12.8zm-155.21-41.28v112h19.52v-40.32c0-11.84 8-21.6 19.52-21.6 10.4 0 17.92 6.08 17.92 20.48v41.44h19.52v-41.6c0-23.2-9.92-38.4-32.32-38.4-8.96 0-17.6 2.72-24.64 11.84v-43.84h-19.52zm-21.69 89.12c-4.8 4.8-11.04 6.56-17.28 6.56-12.16 0-22.4-8-22.4-23.04 0-13.76 9.6-23.36 22.72-23.36 5.44 0 11.2 2.08 15.84 6.24l12.32-12.96c-8.64-8.48-17.28-11.68-28.48-11.68-22.88 0-41.92 13.76-41.92 41.76s19.04 41.76 41.92 41.76c11.68 0 21.28-3.52 30.4-12.48l-13.12-12.8zm-69.758-9.6c3.04-32.48-13.44-48.8-39.84-48.8-25.6 0-41.92 17.28-41.92 41.28 0 25.28 16.16 42.08 43.36 42.08 12 0 25.6-4.16 33.92-12.8l-12.48-12.32c-4.48 4.64-13.92 7.36-21.12 7.36-13.76 0-22.24-7.04-23.52-16.8h61.6zm-61.28-16.16c2.88-10.24 11.52-15.36 22.08-15.36 11.2 0 19.2 5.12 20.48 15.36h-42.56zm-72.71-50.4v20.32h-14.72v16.8h14.72v34.08c0 19.68 11.2 29.44 28.32 28.8 5.92-0.16 10.56-1.12 16.16-3.36l-5.44-16.64c-2.88 1.44-6.4 2.4-9.44 2.4-6.08 0-10.24-3.68-10.24-11.2v-34.08h21.92v-16.8h-21.76v-22.4l-19.52 2.08z"/>
	</g>
</svg>
