<svg cursor="pointer" id="searchBarSVG" height="40" width="250" viewBox="0 0 250 40">
	<g id="MenuIcon" transform="matrix(.81020 0 0 .87264 3.9882 -880.29)" stroke="#000" stroke-width="2.3">
		<path id="menuTopLine" d="m3.4532 1011.17h50"/>
		<path id="menuBottomLine" d="m3.4532 1052.5h50"/>
		<path id="searchHandle" d="m 3.4532,1031.6817 50,0"/>
	</g>
	<g id="searchBoxBorder" transform="matrix(.81018 0 0 .87129 3.9861 -878.81)" stroke-width="2" display="none" fill="none">
		<path id="path4445" d="m 20.888,1010.7 -23.7185,0.1663 0,21.4776" stroke="#fff"/><!--9e8989-->
		<path id="path4449" d="m 21.763,1052.55 -24.5935,0 0,-20.4454" stroke="#fff"/><!--5bb7b6-->
		<path id="path4451" d="m 20.219,1010.8 281.38,0 0,21.092" stroke="#fff"/><!--d25454-->
		<path id="path4453" d="m 20.83,1052.55 280.79,0 0,-20.8402" stroke="#fff"/><!--6d5555-->
	</g>
	<path id="magnifying" d="m 18.916958,23.257858 c -3.140438,-3.140438 -3.140438,-8.232094 0,-11.372532 3.140438,-3.1404479 8.232095,-3.1404479 11.372533,0 3.140438,3.140438 3.140438,8.232094 0,11.372532 -3.140438,3.140438 -8.232095,3.140438 -11.372533,0"
		  style="fill: none; opacity:0; stroke:#ffffff; stroke-width: 1.5"></path>
	<rect id="menuButtonOverlay" y="5" x="11" height="32" width="32" fill="red" opacity="0"></rect>
	<input id="searchBox" type="text">
</svg>